<svg width="369" height="353" viewBox="0 0 369 353" fill="none" xmlns="http://www.w3.org/2000/svg">
<path d="M326.863 352.1L30.2916 352.2C23.0469 352.229 15.9231 350.344 9.64101 346.735C3.35894 343.127 -1.8584 337.923 -5.48299 331.65C-9.10757 325.377 -11.0108 318.258 -11 311.014C-10.9891 303.769 -9.06471 296.656 -5.42142 290.394L142.77 20.6196C146.385 14.353 151.586 9.14835 157.85 5.52886C164.114 1.90937 171.221 0.00253617 178.455 2.52817e-06C185.69 -0.00253111 192.798 1.89932 199.065 5.51442C205.331 9.12952 210.536 14.3305 214.156 20.5946L362.556 290.295C366.168 296.559 368.068 303.664 368.065 310.895C368.063 318.126 366.157 325.23 362.541 331.492C358.925 337.754 353.724 342.954 347.462 346.571C341.2 350.187 334.097 352.092 326.866 352.095L326.863 352.1ZM-7.27341 310.994C-7.27341 317.436 25.4516 303.554 28.8416 309.422C35.6236 321.158 16.7346 348.484 30.2896 348.479C30.2896 348.479 352.551 341.359 359.325 329.618C362.651 323.929 364.404 317.458 364.401 310.868C364.399 304.279 362.642 297.808 359.311 292.123L210.914 22.4226C207.649 16.7063 202.922 11.9615 197.218 8.67527C191.514 5.38903 185.038 3.67967 178.456 3.72258C164.907 3.72258 -7.27342 304.556 -7.27442 311L-7.27341 310.994Z" fill="#3F3D56"/>
<path d="M186.157 317.281C243.18 317.281 289.407 271.054 289.407 214.031C289.407 157.007 243.18 110.781 186.157 110.781C129.133 110.781 82.9066 157.007 82.9066 214.031C82.9066 271.054 129.133 317.281 186.157 317.281Z" fill="#0d6efd"/>
<path d="M177.988 240.54L176.905 149.27H195.323L194.149 240.54H177.988ZM186.204 278.795C184.599 278.821 183.006 278.518 181.523 277.904C180.04 277.291 178.699 276.38 177.582 275.229C176.452 274.104 175.555 272.768 174.943 271.296C174.331 269.824 174.017 268.246 174.017 266.652C174.017 265.058 174.331 263.479 174.943 262.007C175.555 260.535 176.452 259.199 177.582 258.075C178.699 256.923 180.04 256.012 181.523 255.399C183.006 254.785 184.599 254.482 186.204 254.509C187.802 254.48 189.389 254.782 190.865 255.396C192.341 256.009 193.674 256.921 194.781 258.075C195.921 259.198 196.821 260.542 197.426 262.024C198.031 263.506 198.329 265.096 198.302 266.697C198.323 268.283 198.022 269.858 197.417 271.324C196.812 272.791 195.915 274.12 194.781 275.23C193.674 276.383 192.341 277.295 190.865 277.909C189.389 278.522 187.802 278.824 186.204 278.796V278.795Z" fill="white"/>
</svg>
